<svg xmlns="http://www.w3.org/2000/svg" xmlns:xlink="http://www.w3.org/1999/xlink" width="400" zoomAndPan="magnify" viewBox="0 0 300 299.999988" height="400" preserveAspectRatio="xMidYMid meet" version="1.0"><defs><clipPath id="1905f2cf7e"><path d="M 23.925781 0 L 276.074219 0 C 289.289062 0 300 10.710938 300 23.925781 L 300 276.074219 C 300 289.289062 289.289062 300 276.074219 300 L 23.925781 300 C 10.710938 300 0 289.289062 0 276.074219 L 0 23.925781 C 0 10.710938 10.710938 0 23.925781 0 Z M 23.925781 0 " clip-rule="nonzero"/></clipPath><radialGradient gradientTransform="matrix(1, 0, 0, 1, 0.000006, -0)" gradientUnits="userSpaceOnUse" r="212.131632" cx="149.999994" id="bcd2bb380e" cy="149.999994" fx="149.999994" fy="149.999994"><stop stop-opacity="1" stop-color="rgb(99.804688%, 99.920654%, 99.983215%)" offset="0"/><stop stop-opacity="1" stop-color="rgb(99.414062%, 99.761963%, 99.951172%)" offset="0.00390625"/><stop stop-opacity="1" stop-color="rgb(99.023438%, 99.604797%, 99.919128%)" offset="0.0078125"/><stop stop-opacity="1" stop-color="rgb(98.632812%, 99.446106%, 99.887085%)" offset="0.0117188"/><stop stop-opacity="1" stop-color="rgb(98.242188%, 99.28894%, 99.855042%)" offset="0.015625"/><stop stop-opacity="1" stop-color="rgb(97.851562%, 99.130249%, 99.822998%)" offset="0.0195312"/><stop stop-opacity="1" stop-color="rgb(97.460938%, 98.973083%, 99.790955%)" offset="0.0234375"/><stop stop-opacity="1" stop-color="rgb(97.070312%, 98.815918%, 99.758911%)" offset="0.0273438"/><stop stop-opacity="1" stop-color="rgb(96.679688%, 98.657227%, 99.726868%)" offset="0.03125"/><stop stop-opacity="1" stop-color="rgb(96.289062%, 98.500061%, 99.694824%)" offset="0.0351562"/><stop stop-opacity="1" stop-color="rgb(95.898438%, 98.34137%, 99.662781%)" offset="0.0390625"/><stop stop-opacity="1" stop-color="rgb(95.507812%, 98.184204%, 99.630737%)" offset="0.0429688"/><stop stop-opacity="1" stop-color="rgb(95.117188%, 98.025513%, 99.598694%)" offset="0.046875"/><stop stop-opacity="1" stop-color="rgb(94.726562%, 97.868347%, 99.56665%)" offset="0.0507812"/><stop stop-opacity="1" stop-color="rgb(94.335938%, 97.711182%, 99.534607%)" offset="0.0546875"/><stop stop-opacity="1" stop-color="rgb(93.945312%, 97.55249%, 99.502563%)" offset="0.0585938"/><stop stop-opacity="1" stop-color="rgb(93.554688%, 97.395325%, 99.47052%)" offset="0.0625"/><stop stop-opacity="1" stop-color="rgb(93.164062%, 97.236633%, 99.438477%)" offset="0.0664062"/><stop stop-opacity="1" stop-color="rgb(92.773438%, 97.079468%, 99.406433%)" offset="0.0703125"/><stop stop-opacity="1" stop-color="rgb(92.382812%, 96.920776%, 99.37439%)" offset="0.0742188"/><stop stop-opacity="1" stop-color="rgb(91.992188%, 96.763611%, 99.342346%)" offset="0.078125"/><stop stop-opacity="1" stop-color="rgb(91.601562%, 96.606445%, 99.310303%)" offset="0.0820312"/><stop stop-opacity="1" stop-color="rgb(91.210938%, 96.447754%, 99.278259%)" offset="0.0859375"/><stop stop-opacity="1" stop-color="rgb(90.820312%, 96.290588%, 99.246216%)" offset="0.0898438"/><stop stop-opacity="1" stop-color="rgb(90.429688%, 96.131897%, 99.214172%)" offset="0.09375"/><stop stop-opacity="1" stop-color="rgb(90.039062%, 95.974731%, 99.182129%)" offset="0.0976562"/><stop stop-opacity="1" stop-color="rgb(89.648438%, 95.81604%, 99.150085%)" offset="0.101562"/><stop stop-opacity="1" stop-color="rgb(89.257812%, 95.658875%, 99.118042%)" offset="0.105469"/><stop stop-opacity="1" stop-color="rgb(88.867188%, 95.501709%, 99.085999%)" offset="0.109375"/><stop stop-opacity="1" stop-color="rgb(88.476562%, 95.343018%, 99.053955%)" offset="0.113281"/><stop stop-opacity="1" stop-color="rgb(88.085938%, 95.185852%, 99.021912%)" offset="0.117188"/><stop stop-opacity="1" stop-color="rgb(87.695312%, 95.027161%, 98.989868%)" offset="0.121094"/><stop stop-opacity="1" stop-color="rgb(87.304688%, 94.869995%, 98.957825%)" offset="0.125"/><stop stop-opacity="1" stop-color="rgb(86.914062%, 94.71283%, 98.925781%)" offset="0.128906"/><stop stop-opacity="1" stop-color="rgb(86.523438%, 94.554138%, 98.893738%)" offset="0.132812"/><stop stop-opacity="1" stop-color="rgb(86.132812%, 94.396973%, 98.861694%)" offset="0.136719"/><stop stop-opacity="1" stop-color="rgb(85.742188%, 94.238281%, 98.829651%)" offset="0.140625"/><stop stop-opacity="1" stop-color="rgb(85.351562%, 94.081116%, 98.797607%)" offset="0.144531"/><stop stop-opacity="1" stop-color="rgb(84.960938%, 93.922424%, 98.765564%)" offset="0.148438"/><stop stop-opacity="1" stop-color="rgb(84.570312%, 93.765259%, 98.733521%)" offset="0.152344"/><stop stop-opacity="1" stop-color="rgb(84.179688%, 93.608093%, 98.701477%)" offset="0.15625"/><stop stop-opacity="1" stop-color="rgb(83.789062%, 93.449402%, 98.669434%)" offset="0.160156"/><stop stop-opacity="1" stop-color="rgb(83.398438%, 93.292236%, 98.63739%)" offset="0.164062"/><stop stop-opacity="1" stop-color="rgb(83.007812%, 93.133545%, 98.605347%)" offset="0.167969"/><stop stop-opacity="1" stop-color="rgb(82.617188%, 92.976379%, 98.573303%)" offset="0.171875"/><stop stop-opacity="1" stop-color="rgb(82.226562%, 92.817688%, 98.54126%)" offset="0.175781"/><stop stop-opacity="1" stop-color="rgb(81.835938%, 92.660522%, 98.509216%)" offset="0.179688"/><stop stop-opacity="1" stop-color="rgb(81.445312%, 92.503357%, 98.477173%)" offset="0.183594"/><stop stop-opacity="1" stop-color="rgb(81.054688%, 92.344666%, 98.445129%)" offset="0.1875"/><stop stop-opacity="1" stop-color="rgb(80.664062%, 92.1875%, 98.413086%)" offset="0.191406"/><stop stop-opacity="1" stop-color="rgb(80.273438%, 92.028809%, 98.381042%)" offset="0.195312"/><stop stop-opacity="1" stop-color="rgb(79.882812%, 91.871643%, 98.348999%)" offset="0.199219"/><stop stop-opacity="1" stop-color="rgb(79.492188%, 91.712952%, 98.316956%)" offset="0.203125"/><stop stop-opacity="1" stop-color="rgb(79.101562%, 91.555786%, 98.284912%)" offset="0.207031"/><stop stop-opacity="1" stop-color="rgb(78.710938%, 91.398621%, 98.252869%)" offset="0.210938"/><stop stop-opacity="1" stop-color="rgb(78.320312%, 91.239929%, 98.220825%)" offset="0.214844"/><stop stop-opacity="1" stop-color="rgb(77.929688%, 91.082764%, 98.188782%)" offset="0.21875"/><stop stop-opacity="1" stop-color="rgb(77.539062%, 90.924072%, 98.156738%)" offset="0.222656"/><stop stop-opacity="1" stop-color="rgb(77.148438%, 90.766907%, 98.124695%)" offset="0.226562"/><stop stop-opacity="1" stop-color="rgb(76.757812%, 90.608215%, 98.092651%)" offset="0.230469"/><stop stop-opacity="1" stop-color="rgb(76.367188%, 90.45105%, 98.060608%)" offset="0.234375"/><stop stop-opacity="1" stop-color="rgb(75.976562%, 90.293884%, 98.028564%)" offset="0.238281"/><stop stop-opacity="1" stop-color="rgb(75.585938%, 90.135193%, 97.996521%)" offset="0.242188"/><stop stop-opacity="1" stop-color="rgb(75.195312%, 89.978027%, 97.964478%)" offset="0.246094"/><stop stop-opacity="1" stop-color="rgb(74.804688%, 89.819336%, 97.932434%)" offset="0.25"/><stop stop-opacity="1" stop-color="rgb(74.414062%, 89.66217%, 97.900391%)" offset="0.253906"/><stop stop-opacity="1" stop-color="rgb(74.023438%, 89.505005%, 97.868347%)" offset="0.257812"/><stop stop-opacity="1" stop-color="rgb(73.632812%, 89.346313%, 97.836304%)" offset="0.261719"/><stop stop-opacity="1" stop-color="rgb(73.242188%, 89.189148%, 97.80426%)" offset="0.265625"/><stop stop-opacity="1" stop-color="rgb(72.851562%, 89.030457%, 97.772217%)" offset="0.269531"/><stop stop-opacity="1" stop-color="rgb(72.460938%, 88.873291%, 97.740173%)" offset="0.273438"/><stop stop-opacity="1" stop-color="rgb(72.070312%, 88.7146%, 97.70813%)" offset="0.277344"/><stop stop-opacity="1" stop-color="rgb(71.679688%, 88.557434%, 97.676086%)" offset="0.28125"/><stop stop-opacity="1" stop-color="rgb(71.289062%, 88.400269%, 97.644043%)" offset="0.285156"/><stop stop-opacity="1" stop-color="rgb(70.898438%, 88.241577%, 97.612%)" offset="0.289062"/><stop stop-opacity="1" stop-color="rgb(70.507812%, 88.084412%, 97.579956%)" offset="0.292969"/><stop stop-opacity="1" stop-color="rgb(70.117188%, 87.92572%, 97.547913%)" offset="0.296875"/><stop stop-opacity="1" stop-color="rgb(69.726562%, 87.768555%, 97.515869%)" offset="0.300781"/><stop stop-opacity="1" stop-color="rgb(69.335938%, 87.609863%, 97.483826%)" offset="0.304688"/><stop stop-opacity="1" stop-color="rgb(68.945312%, 87.452698%, 97.451782%)" offset="0.308594"/><stop stop-opacity="1" stop-color="rgb(68.554688%, 87.295532%, 97.419739%)" offset="0.3125"/><stop stop-opacity="1" stop-color="rgb(68.164062%, 87.136841%, 97.387695%)" offset="0.316406"/><stop stop-opacity="1" stop-color="rgb(67.773438%, 86.979675%, 97.355652%)" offset="0.320312"/><stop stop-opacity="1" stop-color="rgb(67.382812%, 86.820984%, 97.323608%)" offset="0.324219"/><stop stop-opacity="1" stop-color="rgb(66.992188%, 86.663818%, 97.291565%)" offset="0.328125"/><stop stop-opacity="1" stop-color="rgb(66.601562%, 86.505127%, 97.259521%)" offset="0.332031"/><stop stop-opacity="1" stop-color="rgb(66.210938%, 86.347961%, 97.227478%)" offset="0.335938"/><stop stop-opacity="1" stop-color="rgb(65.820312%, 86.190796%, 97.195435%)" offset="0.339844"/><stop stop-opacity="1" stop-color="rgb(65.429688%, 86.032104%, 97.163391%)" offset="0.34375"/><stop stop-opacity="1" stop-color="rgb(65.039062%, 85.874939%, 97.131348%)" offset="0.347656"/><stop stop-opacity="1" stop-color="rgb(64.648438%, 85.716248%, 97.099304%)" offset="0.351562"/><stop stop-opacity="1" stop-color="rgb(64.257812%, 85.559082%, 97.067261%)" offset="0.355469"/><stop stop-opacity="1" stop-color="rgb(63.867188%, 85.400391%, 97.035217%)" offset="0.359375"/><stop stop-opacity="1" stop-color="rgb(63.476562%, 85.243225%, 97.003174%)" offset="0.363281"/><stop stop-opacity="1" stop-color="rgb(63.085938%, 85.08606%, 96.97113%)" offset="0.367188"/><stop stop-opacity="1" stop-color="rgb(62.695312%, 84.927368%, 96.939087%)" offset="0.371094"/><stop stop-opacity="1" stop-color="rgb(62.304688%, 84.770203%, 96.907043%)" offset="0.375"/><stop stop-opacity="1" stop-color="rgb(61.914062%, 84.611511%, 96.875%)" offset="0.378906"/><stop stop-opacity="1" stop-color="rgb(61.523438%, 84.454346%, 96.842957%)" offset="0.382812"/><stop stop-opacity="1" stop-color="rgb(61.132812%, 84.29718%, 96.810913%)" offset="0.386719"/><stop stop-opacity="1" stop-color="rgb(60.742188%, 84.138489%, 96.77887%)" offset="0.390625"/><stop stop-opacity="1" stop-color="rgb(60.351562%, 83.981323%, 96.746826%)" offset="0.394531"/><stop stop-opacity="1" stop-color="rgb(59.960938%, 83.822632%, 96.714783%)" offset="0.398438"/><stop stop-opacity="1" stop-color="rgb(59.570312%, 83.665466%, 96.682739%)" offset="0.402344"/><stop stop-opacity="1" stop-color="rgb(59.179688%, 83.506775%, 96.650696%)" offset="0.40625"/><stop stop-opacity="1" stop-color="rgb(58.789062%, 83.349609%, 96.618652%)" offset="0.410156"/><stop stop-opacity="1" stop-color="rgb(58.398438%, 83.192444%, 96.586609%)" offset="0.414062"/><stop stop-opacity="1" stop-color="rgb(58.007812%, 83.033752%, 96.554565%)" offset="0.417969"/><stop stop-opacity="1" stop-color="rgb(57.617188%, 82.876587%, 96.522522%)" offset="0.421875"/><stop stop-opacity="1" stop-color="rgb(57.226562%, 82.717896%, 96.490479%)" offset="0.425781"/><stop stop-opacity="1" stop-color="rgb(56.835938%, 82.56073%, 96.458435%)" offset="0.429688"/><stop stop-opacity="1" stop-color="rgb(56.445312%, 82.402039%, 96.426392%)" offset="0.433594"/><stop stop-opacity="1" stop-color="rgb(56.054688%, 82.244873%, 96.394348%)" offset="0.4375"/><stop stop-opacity="1" stop-color="rgb(55.664062%, 82.087708%, 96.362305%)" offset="0.441406"/><stop stop-opacity="1" stop-color="rgb(55.273438%, 81.929016%, 96.330261%)" offset="0.445312"/><stop stop-opacity="1" stop-color="rgb(54.882812%, 81.771851%, 96.298218%)" offset="0.449219"/><stop stop-opacity="1" stop-color="rgb(54.492188%, 81.613159%, 96.266174%)" offset="0.453125"/><stop stop-opacity="1" stop-color="rgb(54.101562%, 81.455994%, 96.234131%)" offset="0.457031"/><stop stop-opacity="1" stop-color="rgb(53.710938%, 81.297302%, 96.202087%)" offset="0.460938"/><stop stop-opacity="1" stop-color="rgb(53.320312%, 81.140137%, 96.170044%)" offset="0.464844"/><stop stop-opacity="1" stop-color="rgb(52.929688%, 80.982971%, 96.138%)" offset="0.46875"/><stop stop-opacity="1" stop-color="rgb(52.539062%, 80.82428%, 96.105957%)" offset="0.472656"/><stop stop-opacity="1" stop-color="rgb(52.148438%, 80.667114%, 96.073914%)" offset="0.476562"/><stop stop-opacity="1" stop-color="rgb(51.757812%, 80.508423%, 96.04187%)" offset="0.480469"/><stop stop-opacity="1" stop-color="rgb(51.367188%, 80.351257%, 96.011353%)" offset="0.484375"/><stop stop-opacity="1" stop-color="rgb(50.976562%, 80.194092%, 95.979309%)" offset="0.488281"/><stop stop-opacity="1" stop-color="rgb(50.585938%, 80.0354%, 95.947266%)" offset="0.492188"/><stop stop-opacity="1" stop-color="rgb(50.195312%, 79.878235%, 95.915222%)" offset="0.496094"/><stop stop-opacity="1" stop-color="rgb(49.804688%, 79.719543%, 95.883179%)" offset="0.5"/><stop stop-opacity="1" stop-color="rgb(49.414062%, 79.562378%, 95.851135%)" offset="0.503906"/><stop stop-opacity="1" stop-color="rgb(49.023438%, 79.403687%, 95.819092%)" offset="0.507812"/><stop stop-opacity="1" stop-color="rgb(48.632812%, 79.246521%, 95.787048%)" offset="0.511719"/><stop stop-opacity="1" stop-color="rgb(48.242188%, 79.089355%, 95.755005%)" offset="0.515625"/><stop stop-opacity="1" stop-color="rgb(47.851562%, 78.930664%, 95.722961%)" offset="0.519531"/><stop stop-opacity="1" stop-color="rgb(47.460938%, 78.773499%, 95.690918%)" offset="0.523438"/><stop stop-opacity="1" stop-color="rgb(47.070312%, 78.614807%, 95.658875%)" offset="0.527344"/><stop stop-opacity="1" stop-color="rgb(46.679688%, 78.457642%, 95.626831%)" offset="0.53125"/><stop stop-opacity="1" stop-color="rgb(46.289062%, 78.29895%, 95.594788%)" offset="0.535156"/><stop stop-opacity="1" stop-color="rgb(45.898438%, 78.141785%, 95.562744%)" offset="0.539062"/><stop stop-opacity="1" stop-color="rgb(45.507812%, 77.984619%, 95.530701%)" offset="0.542969"/><stop stop-opacity="1" stop-color="rgb(45.117188%, 77.825928%, 95.498657%)" offset="0.546875"/><stop stop-opacity="1" stop-color="rgb(44.726562%, 77.668762%, 95.466614%)" offset="0.550781"/><stop stop-opacity="1" stop-color="rgb(44.335938%, 77.510071%, 95.43457%)" offset="0.554688"/><stop stop-opacity="1" stop-color="rgb(43.945312%, 77.352905%, 95.402527%)" offset="0.558594"/><stop stop-opacity="1" stop-color="rgb(43.554688%, 77.194214%, 95.370483%)" offset="0.5625"/><stop stop-opacity="1" stop-color="rgb(43.164062%, 77.037048%, 95.33844%)" offset="0.566406"/><stop stop-opacity="1" stop-color="rgb(42.773438%, 76.879883%, 95.306396%)" offset="0.570312"/><stop stop-opacity="1" stop-color="rgb(42.382812%, 76.721191%, 95.274353%)" offset="0.574219"/><stop stop-opacity="1" stop-color="rgb(41.992188%, 76.564026%, 95.24231%)" offset="0.578125"/><stop stop-opacity="1" stop-color="rgb(41.601562%, 76.405334%, 95.210266%)" offset="0.582031"/><stop stop-opacity="1" stop-color="rgb(41.210938%, 76.248169%, 95.178223%)" offset="0.585938"/><stop stop-opacity="1" stop-color="rgb(40.820312%, 76.089478%, 95.146179%)" offset="0.589844"/><stop stop-opacity="1" stop-color="rgb(40.429688%, 75.932312%, 95.114136%)" offset="0.59375"/><stop stop-opacity="1" stop-color="rgb(40.039062%, 75.775146%, 95.082092%)" offset="0.597656"/><stop stop-opacity="1" stop-color="rgb(39.648438%, 75.616455%, 95.050049%)" offset="0.601562"/><stop stop-opacity="1" stop-color="rgb(39.257812%, 75.45929%, 95.018005%)" offset="0.605469"/><stop stop-opacity="1" stop-color="rgb(38.867188%, 75.300598%, 94.985962%)" offset="0.609375"/><stop stop-opacity="1" stop-color="rgb(38.476562%, 75.143433%, 94.953918%)" offset="0.613281"/><stop stop-opacity="1" stop-color="rgb(38.085938%, 74.986267%, 94.921875%)" offset="0.617188"/><stop stop-opacity="1" stop-color="rgb(37.695312%, 74.827576%, 94.889832%)" offset="0.621094"/><stop stop-opacity="1" stop-color="rgb(37.304688%, 74.67041%, 94.857788%)" offset="0.625"/><stop stop-opacity="1" stop-color="rgb(36.914062%, 74.511719%, 94.825745%)" offset="0.628906"/><stop stop-opacity="1" stop-color="rgb(36.523438%, 74.354553%, 94.793701%)" offset="0.632812"/><stop stop-opacity="1" stop-color="rgb(36.132812%, 74.195862%, 94.761658%)" offset="0.636719"/><stop stop-opacity="1" stop-color="rgb(35.742188%, 74.038696%, 94.729614%)" offset="0.640625"/><stop stop-opacity="1" stop-color="rgb(35.351562%, 73.881531%, 94.697571%)" offset="0.644531"/><stop stop-opacity="1" stop-color="rgb(34.960938%, 73.722839%, 94.665527%)" offset="0.648438"/><stop stop-opacity="1" stop-color="rgb(34.570312%, 73.565674%, 94.633484%)" offset="0.652344"/><stop stop-opacity="1" stop-color="rgb(34.179688%, 73.406982%, 94.60144%)" offset="0.65625"/><stop stop-opacity="1" stop-color="rgb(33.789062%, 73.249817%, 94.569397%)" offset="0.660156"/><stop stop-opacity="1" stop-color="rgb(33.398438%, 73.091125%, 94.537354%)" offset="0.664062"/><stop stop-opacity="1" stop-color="rgb(33.007812%, 72.93396%, 94.50531%)" offset="0.667969"/><stop stop-opacity="1" stop-color="rgb(32.617188%, 72.776794%, 94.473267%)" offset="0.671875"/><stop stop-opacity="1" stop-color="rgb(32.226562%, 72.618103%, 94.441223%)" offset="0.675781"/><stop stop-opacity="1" stop-color="rgb(31.835938%, 72.460938%, 94.40918%)" offset="0.679688"/><stop stop-opacity="1" stop-color="rgb(31.445312%, 72.302246%, 94.377136%)" offset="0.683594"/><stop stop-opacity="1" stop-color="rgb(31.054688%, 72.145081%, 94.345093%)" offset="0.6875"/><stop stop-opacity="1" stop-color="rgb(30.664062%, 71.986389%, 94.313049%)" offset="0.691406"/><stop stop-opacity="1" stop-color="rgb(30.273438%, 71.829224%, 94.281006%)" offset="0.695312"/><stop stop-opacity="1" stop-color="rgb(29.882812%, 71.672058%, 94.248962%)" offset="0.699219"/><stop stop-opacity="1" stop-color="rgb(29.492188%, 71.513367%, 94.216919%)" offset="0.703125"/><stop stop-opacity="1" stop-color="rgb(29.101562%, 71.356201%, 94.184875%)" offset="0.707031"/><stop stop-opacity="1" stop-color="rgb(28.710938%, 71.19751%, 94.152832%)" offset="0.710938"/><stop stop-opacity="1" stop-color="rgb(28.320312%, 71.040344%, 94.120789%)" offset="0.714844"/><stop stop-opacity="1" stop-color="rgb(27.929688%, 70.881653%, 94.088745%)" offset="0.71875"/><stop stop-opacity="1" stop-color="rgb(27.539062%, 70.724487%, 94.056702%)" offset="0.722656"/><stop stop-opacity="1" stop-color="rgb(27.148438%, 70.567322%, 94.024658%)" offset="0.726562"/><stop stop-opacity="1" stop-color="rgb(26.757812%, 70.40863%, 93.992615%)" offset="0.730469"/><stop stop-opacity="1" stop-color="rgb(26.367188%, 70.251465%, 93.960571%)" offset="0.734375"/><stop stop-opacity="1" stop-color="rgb(25.976562%, 70.092773%, 93.928528%)" offset="0.738281"/><stop stop-opacity="1" stop-color="rgb(25.585938%, 69.935608%, 93.896484%)" offset="0.742188"/><stop stop-opacity="1" stop-color="rgb(25.195312%, 69.778442%, 93.864441%)" offset="0.746094"/><stop stop-opacity="1" stop-color="rgb(24.804688%, 69.619751%, 93.832397%)" offset="0.75"/><stop stop-opacity="1" stop-color="rgb(24.414062%, 69.462585%, 93.800354%)" offset="0.753906"/><stop stop-opacity="1" stop-color="rgb(24.023438%, 69.303894%, 93.768311%)" offset="0.757812"/><stop stop-opacity="1" stop-color="rgb(23.632812%, 69.146729%, 93.736267%)" offset="0.761719"/><stop stop-opacity="1" stop-color="rgb(23.242188%, 68.988037%, 93.704224%)" offset="0.765625"/><stop stop-opacity="1" stop-color="rgb(22.851562%, 68.830872%, 93.67218%)" offset="0.769531"/><stop stop-opacity="1" stop-color="rgb(22.460938%, 68.673706%, 93.640137%)" offset="0.773438"/><stop stop-opacity="1" stop-color="rgb(22.070312%, 68.515015%, 93.608093%)" offset="0.777344"/><stop stop-opacity="1" stop-color="rgb(21.679688%, 68.357849%, 93.57605%)" offset="0.78125"/><stop stop-opacity="1" stop-color="rgb(21.289062%, 68.199158%, 93.544006%)" offset="0.785156"/><stop stop-opacity="1" stop-color="rgb(20.898438%, 68.041992%, 93.511963%)" offset="0.789062"/><stop stop-opacity="1" stop-color="rgb(20.507812%, 67.883301%, 93.479919%)" offset="0.792969"/><stop stop-opacity="1" stop-color="rgb(20.117188%, 67.726135%, 93.447876%)" offset="0.796875"/><stop stop-opacity="1" stop-color="rgb(19.726562%, 67.56897%, 93.415833%)" offset="0.800781"/><stop stop-opacity="1" stop-color="rgb(19.335938%, 67.410278%, 93.383789%)" offset="0.804688"/><stop stop-opacity="1" stop-color="rgb(18.945312%, 67.253113%, 93.351746%)" offset="0.808594"/><stop stop-opacity="1" stop-color="rgb(18.554688%, 67.094421%, 93.319702%)" offset="0.8125"/><stop stop-opacity="1" stop-color="rgb(18.164062%, 66.937256%, 93.287659%)" offset="0.816406"/><stop stop-opacity="1" stop-color="rgb(17.773438%, 66.778564%, 93.255615%)" offset="0.820312"/><stop stop-opacity="1" stop-color="rgb(17.382812%, 66.621399%, 93.223572%)" offset="0.824219"/><stop stop-opacity="1" stop-color="rgb(16.992188%, 66.464233%, 93.191528%)" offset="0.828125"/><stop stop-opacity="1" stop-color="rgb(16.601562%, 66.305542%, 93.159485%)" offset="0.832031"/><stop stop-opacity="1" stop-color="rgb(16.210938%, 66.148376%, 93.127441%)" offset="0.835938"/><stop stop-opacity="1" stop-color="rgb(15.820312%, 65.989685%, 93.095398%)" offset="0.839844"/><stop stop-opacity="1" stop-color="rgb(15.429688%, 65.83252%, 93.063354%)" offset="0.84375"/><stop stop-opacity="1" stop-color="rgb(15.039062%, 65.673828%, 93.031311%)" offset="0.847656"/><stop stop-opacity="1" stop-color="rgb(14.648438%, 65.516663%, 92.999268%)" offset="0.851562"/><stop stop-opacity="1" stop-color="rgb(14.257812%, 65.359497%, 92.967224%)" offset="0.855469"/><stop stop-opacity="1" stop-color="rgb(13.867188%, 65.200806%, 92.935181%)" offset="0.859375"/><stop stop-opacity="1" stop-color="rgb(13.476562%, 65.04364%, 92.903137%)" offset="0.863281"/><stop stop-opacity="1" stop-color="rgb(13.085938%, 64.884949%, 92.871094%)" offset="0.867188"/><stop stop-opacity="1" stop-color="rgb(12.695312%, 64.727783%, 92.83905%)" offset="0.871094"/><stop stop-opacity="1" stop-color="rgb(12.304688%, 64.570618%, 92.807007%)" offset="0.875"/><stop stop-opacity="1" stop-color="rgb(11.914062%, 64.411926%, 92.774963%)" offset="0.878906"/><stop stop-opacity="1" stop-color="rgb(11.523438%, 64.254761%, 92.74292%)" offset="0.882812"/><stop stop-opacity="1" stop-color="rgb(11.132812%, 64.096069%, 92.710876%)" offset="0.886719"/><stop stop-opacity="1" stop-color="rgb(10.742188%, 63.938904%, 92.678833%)" offset="0.890625"/><stop stop-opacity="1" stop-color="rgb(10.351562%, 63.780212%, 92.64679%)" offset="0.894531"/><stop stop-opacity="1" stop-color="rgb(9.960938%, 63.623047%, 92.614746%)" offset="0.898438"/><stop stop-opacity="1" stop-color="rgb(9.570312%, 63.465881%, 92.582703%)" offset="0.902344"/><stop stop-opacity="1" stop-color="rgb(9.179688%, 63.30719%, 92.550659%)" offset="0.90625"/><stop stop-opacity="1" stop-color="rgb(8.789062%, 63.150024%, 92.518616%)" offset="0.910156"/><stop stop-opacity="1" stop-color="rgb(8.398438%, 62.991333%, 92.486572%)" offset="0.914062"/><stop stop-opacity="1" stop-color="rgb(8.007812%, 62.834167%, 92.454529%)" offset="0.917969"/><stop stop-opacity="1" stop-color="rgb(7.617188%, 62.675476%, 92.422485%)" offset="0.921875"/><stop stop-opacity="1" stop-color="rgb(7.226562%, 62.518311%, 92.390442%)" offset="0.925781"/><stop stop-opacity="1" stop-color="rgb(6.835938%, 62.361145%, 92.358398%)" offset="0.929688"/><stop stop-opacity="1" stop-color="rgb(6.445312%, 62.202454%, 92.326355%)" offset="0.933594"/><stop stop-opacity="1" stop-color="rgb(6.054688%, 62.045288%, 92.294312%)" offset="0.9375"/><stop stop-opacity="1" stop-color="rgb(5.664062%, 61.886597%, 92.262268%)" offset="0.941406"/><stop stop-opacity="1" stop-color="rgb(5.273438%, 61.729431%, 92.230225%)" offset="0.945312"/><stop stop-opacity="1" stop-color="rgb(4.882812%, 61.57074%, 92.198181%)" offset="0.949219"/><stop stop-opacity="1" stop-color="rgb(4.492188%, 61.413574%, 92.166138%)" offset="0.953125"/><stop stop-opacity="1" stop-color="rgb(4.101562%, 61.256409%, 92.134094%)" offset="0.957031"/><stop stop-opacity="1" stop-color="rgb(3.710938%, 61.097717%, 92.102051%)" offset="0.960938"/><stop stop-opacity="1" stop-color="rgb(3.320312%, 60.940552%, 92.070007%)" offset="0.964844"/><stop stop-opacity="1" stop-color="rgb(2.929688%, 60.78186%, 92.037964%)" offset="0.96875"/><stop stop-opacity="1" stop-color="rgb(2.539062%, 60.624695%, 92.007446%)" offset="0.972656"/><stop stop-opacity="1" stop-color="rgb(2.148438%, 60.467529%, 91.975403%)" offset="0.976562"/><stop stop-opacity="1" stop-color="rgb(1.757812%, 60.308838%, 91.943359%)" offset="0.980469"/><stop stop-opacity="1" stop-color="rgb(1.367188%, 60.151672%, 91.911316%)" offset="0.984375"/><stop stop-opacity="1" stop-color="rgb(0.976562%, 59.992981%, 91.879272%)" offset="0.988281"/><stop stop-opacity="1" stop-color="rgb(0.585938%, 59.835815%, 91.847229%)" offset="0.992188"/><stop stop-opacity="1" stop-color="rgb(0.195312%, 59.677124%, 91.815186%)" offset="0.996094"/><stop stop-opacity="1" stop-color="rgb(0%, 59.599304%, 91.799927%)" offset="1"/></radialGradient><clipPath id="6047d33df9"><path d="M 61.929688 63.863281 L 238.09375 63.863281 L 238.09375 80.679688 L 61.929688 80.679688 Z M 61.929688 63.863281 " clip-rule="nonzero"/></clipPath><clipPath id="abb71c3536"><path d="M 70.339844 63.863281 L 229.660156 63.863281 C 234.304688 63.863281 238.070312 67.628906 238.070312 72.269531 C 238.070312 76.914062 234.304688 80.679688 229.660156 80.679688 L 70.339844 80.679688 C 65.695312 80.679688 61.929688 76.914062 61.929688 72.269531 C 61.929688 67.628906 65.695312 63.863281 70.339844 63.863281 Z M 70.339844 63.863281 " clip-rule="nonzero"/></clipPath><clipPath id="e7afbc1ec2"><path d="M 61.929688 219.824219 L 238.125 219.824219 L 238.125 236.96875 L 61.929688 236.96875 Z M 61.929688 219.824219 " clip-rule="nonzero"/></clipPath><clipPath id="2eddb60cea"><path d="M 70.503906 219.824219 L 229.496094 219.824219 C 231.769531 219.824219 233.949219 220.730469 235.558594 222.335938 C 237.167969 223.945312 238.070312 226.125 238.070312 228.398438 C 238.070312 230.671875 237.167969 232.851562 235.558594 234.460938 C 233.949219 236.066406 231.769531 236.96875 229.496094 236.96875 L 70.503906 236.96875 C 68.230469 236.96875 66.050781 236.066406 64.441406 234.460938 C 62.832031 232.851562 61.929688 230.671875 61.929688 228.398438 C 61.929688 226.125 62.832031 223.945312 64.441406 222.335938 C 66.050781 220.730469 68.230469 219.824219 70.503906 219.824219 Z M 70.503906 219.824219 " clip-rule="nonzero"/></clipPath><clipPath id="095f492661"><path d="M 48.886719 99 L 251.386719 99 L 251.386719 201 L 48.886719 201 Z M 48.886719 99 " clip-rule="nonzero"/></clipPath><clipPath id="364139bc3b"><path d="M 249 200.550781 C 249.277344 200.550781 249.546875 200.496094 249.804688 200.390625 C 250.0625 200.285156 250.292969 200.132812 250.488281 199.933594 C 250.6875 199.738281 250.839844 199.507812 250.945312 199.25 C 251.050781 198.992188 251.105469 198.722656 251.105469 198.445312 L 251.105469 101.546875 C 251.105469 101.269531 251.050781 101 250.945312 100.742188 C 250.839844 100.484375 250.6875 100.257812 250.488281 100.058594 C 250.292969 99.859375 250.0625 99.707031 249.804688 99.601562 C 249.546875 99.496094 249.277344 99.441406 249 99.441406 L 50.992188 99.441406 C 50.714844 99.441406 50.445312 99.496094 50.1875 99.601562 C 49.929688 99.707031 49.703125 99.859375 49.503906 100.058594 C 49.304688 100.257812 49.152344 100.484375 49.046875 100.742188 C 48.941406 101 48.886719 101.269531 48.886719 101.546875 L 48.886719 198.445312 C 48.886719 198.722656 48.941406 198.992188 49.046875 199.25 C 49.152344 199.507812 49.304688 199.738281 49.503906 199.933594 C 49.703125 200.132812 49.929688 200.285156 50.1875 200.390625 C 50.445312 200.496094 50.714844 200.550781 50.992188 200.550781 Z M 123.707031 124.71875 C 123.703125 123.992188 123.878906 123.316406 124.234375 122.683594 C 124.59375 122.054688 125.085938 121.554688 125.714844 121.1875 C 126.339844 120.824219 127.015625 120.640625 127.742188 120.636719 C 128.46875 120.636719 129.144531 120.816406 129.773438 121.179688 L 174.261719 146.457031 C 174.566406 146.640625 174.84375 146.859375 175.09375 147.117188 C 175.34375 147.371094 175.554688 147.652344 175.730469 147.964844 C 175.90625 148.273438 176.039062 148.601562 176.128906 148.945312 C 176.21875 149.289062 176.265625 149.640625 176.265625 149.996094 C 176.265625 150.351562 176.21875 150.703125 176.128906 151.046875 C 176.039062 151.390625 175.90625 151.71875 175.730469 152.027344 C 175.554688 152.339844 175.34375 152.621094 175.09375 152.878906 C 174.84375 153.132812 174.566406 153.351562 174.261719 153.535156 L 129.773438 178.8125 C 129.144531 179.175781 128.46875 179.355469 127.742188 179.355469 C 127.015625 179.351562 126.339844 179.167969 125.714844 178.804688 C 125.085938 178.4375 124.59375 177.941406 124.234375 177.308594 C 123.878906 176.675781 123.703125 176 123.707031 175.273438 Z M 123.707031 124.71875 " clip-rule="nonzero"/></clipPath><clipPath id="0392340dbb"><path d="M 48.886719 53 L 251.386719 53 L 251.386719 92 L 48.886719 92 Z M 48.886719 53 " clip-rule="nonzero"/></clipPath><clipPath id="7b176a7cff"><path d="M 230.042969 53.101562 L 69.953125 53.101562 C 69.261719 53.101562 68.574219 53.132812 67.886719 53.203125 C 67.199219 53.269531 66.519531 53.371094 65.84375 53.503906 C 65.164062 53.640625 64.496094 53.804688 63.835938 54.007812 C 63.175781 54.207031 62.527344 54.4375 61.890625 54.703125 C 61.253906 54.96875 60.628906 55.261719 60.023438 55.585938 C 59.414062 55.914062 58.820312 56.265625 58.25 56.648438 C 57.675781 57.03125 57.121094 57.445312 56.589844 57.882812 C 56.054688 58.320312 55.542969 58.78125 55.054688 59.269531 C 54.570312 59.757812 54.105469 60.269531 53.667969 60.800781 C 53.230469 61.335938 52.820312 61.886719 52.4375 62.460938 C 52.054688 63.035156 51.699219 63.625 51.375 64.234375 C 51.050781 64.84375 50.753906 65.464844 50.492188 66.101562 C 50.226562 66.742188 49.996094 67.390625 49.792969 68.050781 C 49.59375 68.710938 49.425781 69.378906 49.292969 70.054688 C 49.15625 70.730469 49.054688 71.414062 48.988281 72.101562 C 48.921875 72.785156 48.886719 73.472656 48.886719 74.164062 L 48.886719 86.804688 C 48.886719 87.078125 48.914062 87.355469 48.96875 87.625 C 49.023438 87.894531 49.101562 88.160156 49.207031 88.414062 C 49.3125 88.671875 49.441406 88.914062 49.597656 89.144531 C 49.75 89.375 49.925781 89.585938 50.121094 89.78125 C 50.316406 89.976562 50.527344 90.152344 50.757812 90.304688 C 50.988281 90.460938 51.230469 90.589844 51.488281 90.695312 C 51.742188 90.800781 52.007812 90.882812 52.277344 90.933594 C 52.550781 90.988281 52.824219 91.015625 53.101562 91.015625 L 246.894531 91.015625 C 247.167969 91.015625 247.445312 90.988281 247.714844 90.933594 C 247.984375 90.882812 248.25 90.800781 248.503906 90.695312 C 248.761719 90.589844 249.003906 90.460938 249.234375 90.304688 C 249.464844 90.152344 249.675781 89.976562 249.871094 89.78125 C 250.066406 89.585938 250.242188 89.375 250.394531 89.144531 C 250.550781 88.914062 250.679688 88.671875 250.785156 88.414062 C 250.890625 88.160156 250.972656 87.894531 251.023438 87.625 C 251.078125 87.355469 251.105469 87.078125 251.105469 86.804688 L 251.105469 74.164062 C 251.105469 73.472656 251.070312 72.785156 251.003906 72.101562 C 250.9375 71.414062 250.835938 70.730469 250.699219 70.054688 C 250.566406 69.378906 250.398438 68.710938 250.199219 68.050781 C 250 67.390625 249.765625 66.742188 249.503906 66.101562 C 249.238281 65.464844 248.945312 64.84375 248.617188 64.234375 C 248.292969 63.625 247.9375 63.035156 247.554688 62.460938 C 247.171875 61.886719 246.761719 61.335938 246.324219 60.800781 C 245.886719 60.269531 245.425781 59.757812 244.9375 59.269531 C 244.449219 58.78125 243.9375 58.320312 243.40625 57.882812 C 242.871094 57.445312 242.316406 57.03125 241.742188 56.648438 C 241.171875 56.265625 240.578125 55.914062 239.972656 55.585938 C 239.363281 55.261719 238.738281 54.96875 238.101562 54.703125 C 237.464844 54.4375 236.816406 54.207031 236.15625 54.007812 C 235.496094 53.804688 234.828125 53.640625 234.152344 53.503906 C 233.472656 53.371094 232.792969 53.269531 232.105469 53.203125 C 231.417969 53.132812 230.730469 53.101562 230.042969 53.101562 Z M 80.484375 78.378906 C 80.070312 78.378906 79.65625 78.335938 79.25 78.253906 C 78.84375 78.175781 78.449219 78.054688 78.066406 77.894531 C 77.683594 77.738281 77.316406 77.542969 76.972656 77.3125 C 76.628906 77.082031 76.308594 76.820312 76.015625 76.527344 C 75.722656 76.234375 75.460938 75.914062 75.230469 75.570312 C 75 75.222656 74.804688 74.859375 74.644531 74.476562 C 74.488281 74.09375 74.367188 73.699219 74.285156 73.289062 C 74.203125 72.882812 74.164062 72.472656 74.164062 72.058594 C 74.164062 71.644531 74.203125 71.230469 74.285156 70.824219 C 74.367188 70.417969 74.488281 70.023438 74.644531 69.640625 C 74.804688 69.257812 75 68.890625 75.230469 68.546875 C 75.460938 68.203125 75.722656 67.882812 76.015625 67.589844 C 76.308594 67.296875 76.628906 67.035156 76.972656 66.804688 C 77.316406 66.574219 77.683594 66.378906 78.066406 66.21875 C 78.449219 66.0625 78.84375 65.941406 79.25 65.859375 C 79.65625 65.777344 80.070312 65.738281 80.484375 65.738281 C 80.898438 65.738281 81.308594 65.777344 81.714844 65.859375 C 82.125 65.941406 82.519531 66.0625 82.902344 66.21875 C 83.285156 66.378906 83.648438 66.574219 83.996094 66.804688 C 84.339844 67.035156 84.660156 67.296875 84.953125 67.589844 C 85.246094 67.882812 85.507812 68.203125 85.738281 68.546875 C 85.96875 68.890625 86.164062 69.257812 86.320312 69.640625 C 86.480469 70.023438 86.601562 70.417969 86.679688 70.824219 C 86.761719 71.230469 86.804688 71.644531 86.804688 72.058594 C 86.796875 72.472656 86.753906 72.878906 86.667969 73.285156 C 86.582031 73.691406 86.460938 74.082031 86.300781 74.464844 C 86.140625 74.84375 85.945312 75.207031 85.710938 75.550781 C 85.480469 75.890625 85.21875 76.210938 84.929688 76.503906 C 84.636719 76.792969 84.316406 77.054688 83.976562 77.285156 C 83.632812 77.519531 83.269531 77.714844 82.890625 77.875 C 82.507812 78.035156 82.117188 78.15625 81.710938 78.242188 C 81.304688 78.328125 80.898438 78.371094 80.484375 78.378906 Z M 126.824219 78.378906 C 126.410156 78.378906 126 78.335938 125.59375 78.253906 C 125.1875 78.175781 124.789062 78.054688 124.40625 77.894531 C 124.023438 77.738281 123.660156 77.542969 123.316406 77.3125 C 122.96875 77.082031 122.648438 76.820312 122.355469 76.527344 C 122.0625 76.234375 121.800781 75.914062 121.570312 75.570312 C 121.339844 75.222656 121.144531 74.859375 120.988281 74.476562 C 120.828125 74.09375 120.707031 73.699219 120.628906 73.289062 C 120.546875 72.882812 120.507812 72.472656 120.507812 72.058594 C 120.507812 71.644531 120.546875 71.230469 120.628906 70.824219 C 120.707031 70.417969 120.828125 70.023438 120.988281 69.640625 C 121.144531 69.257812 121.339844 68.890625 121.570312 68.546875 C 121.800781 68.203125 122.0625 67.882812 122.355469 67.589844 C 122.648438 67.296875 122.96875 67.035156 123.316406 66.804688 C 123.660156 66.574219 124.023438 66.378906 124.40625 66.21875 C 124.789062 66.0625 125.1875 65.941406 125.59375 65.859375 C 126 65.777344 126.410156 65.738281 126.824219 65.738281 C 127.242188 65.738281 127.652344 65.777344 128.058594 65.859375 C 128.464844 65.941406 128.859375 66.0625 129.242188 66.21875 C 129.628906 66.378906 129.992188 66.574219 130.335938 66.804688 C 130.679688 67.035156 131 67.296875 131.292969 67.589844 C 131.585938 67.882812 131.847656 68.203125 132.078125 68.546875 C 132.308594 68.890625 132.503906 69.257812 132.664062 69.640625 C 132.824219 70.023438 132.941406 70.417969 133.023438 70.824219 C 133.105469 71.230469 133.144531 71.644531 133.144531 72.058594 C 133.140625 72.472656 133.09375 72.878906 133.007812 73.285156 C 132.925781 73.691406 132.800781 74.082031 132.640625 74.464844 C 132.480469 74.84375 132.285156 75.207031 132.054688 75.550781 C 131.824219 75.890625 131.5625 76.210938 131.269531 76.503906 C 130.976562 76.792969 130.660156 77.054688 130.316406 77.285156 C 129.972656 77.519531 129.613281 77.714844 129.230469 77.875 C 128.851562 78.035156 128.457031 78.15625 128.050781 78.242188 C 127.648438 78.328125 127.238281 78.371094 126.824219 78.378906 Z M 173.167969 78.378906 C 172.753906 78.378906 172.339844 78.335938 171.933594 78.253906 C 171.527344 78.175781 171.132812 78.054688 170.75 77.894531 C 170.367188 77.738281 170 77.542969 169.65625 77.3125 C 169.3125 77.082031 168.992188 76.820312 168.699219 76.527344 C 168.40625 76.234375 168.144531 75.914062 167.914062 75.570312 C 167.683594 75.222656 167.488281 74.859375 167.328125 74.476562 C 167.171875 74.09375 167.050781 73.699219 166.96875 73.289062 C 166.886719 72.882812 166.847656 72.472656 166.847656 72.058594 C 166.847656 71.644531 166.886719 71.230469 166.96875 70.824219 C 167.050781 70.417969 167.171875 70.023438 167.328125 69.640625 C 167.488281 69.257812 167.683594 68.890625 167.914062 68.546875 C 168.144531 68.203125 168.40625 67.882812 168.699219 67.589844 C 168.992188 67.296875 169.3125 67.035156 169.65625 66.804688 C 170 66.574219 170.367188 66.378906 170.75 66.21875 C 171.132812 66.0625 171.527344 65.941406 171.933594 65.859375 C 172.339844 65.777344 172.753906 65.738281 173.167969 65.738281 C 173.582031 65.738281 173.992188 65.777344 174.398438 65.859375 C 174.808594 65.941406 175.203125 66.0625 175.585938 66.21875 C 175.96875 66.378906 176.332031 66.574219 176.679688 66.804688 C 177.023438 67.035156 177.34375 67.296875 177.636719 67.589844 C 177.929688 67.882812 178.191406 68.203125 178.421875 68.546875 C 178.652344 68.890625 178.847656 69.257812 179.003906 69.640625 C 179.164062 70.023438 179.285156 70.417969 179.363281 70.824219 C 179.445312 71.230469 179.488281 71.644531 179.488281 72.058594 C 179.480469 72.472656 179.4375 72.878906 179.351562 73.285156 C 179.265625 73.691406 179.144531 74.082031 178.984375 74.464844 C 178.824219 74.84375 178.628906 75.207031 178.394531 75.550781 C 178.164062 75.890625 177.902344 76.210938 177.613281 76.503906 C 177.320312 76.792969 177 77.054688 176.660156 77.285156 C 176.316406 77.519531 175.953125 77.714844 175.574219 77.875 C 175.191406 78.035156 174.800781 78.15625 174.394531 78.242188 C 173.988281 78.328125 173.582031 78.371094 173.167969 78.378906 Z M 219.507812 78.378906 C 219.09375 78.378906 218.683594 78.335938 218.277344 78.253906 C 217.871094 78.175781 217.472656 78.054688 217.089844 77.894531 C 216.707031 77.738281 216.34375 77.542969 216 77.3125 C 215.652344 77.082031 215.332031 76.820312 215.039062 76.527344 C 214.746094 76.234375 214.484375 75.914062 214.253906 75.570312 C 214.023438 75.222656 213.828125 74.859375 213.671875 74.476562 C 213.511719 74.09375 213.390625 73.699219 213.3125 73.289062 C 213.230469 72.882812 213.191406 72.472656 213.191406 72.058594 C 213.191406 71.644531 213.230469 71.230469 213.3125 70.824219 C 213.390625 70.417969 213.511719 70.023438 213.671875 69.640625 C 213.828125 69.257812 214.023438 68.890625 214.253906 68.546875 C 214.484375 68.203125 214.746094 67.882812 215.039062 67.589844 C 215.332031 67.296875 215.652344 67.035156 216 66.804688 C 216.34375 66.574219 216.707031 66.378906 217.089844 66.21875 C 217.472656 66.0625 217.871094 65.941406 218.277344 65.859375 C 218.683594 65.777344 219.09375 65.738281 219.507812 65.738281 C 219.925781 65.738281 220.335938 65.777344 220.742188 65.859375 C 221.148438 65.941406 221.542969 66.0625 221.925781 66.21875 C 222.3125 66.378906 222.675781 66.574219 223.019531 66.804688 C 223.363281 67.035156 223.683594 67.296875 223.976562 67.589844 C 224.269531 67.882812 224.53125 68.203125 224.761719 68.546875 C 224.992188 68.890625 225.1875 69.257812 225.347656 69.640625 C 225.507812 70.023438 225.625 70.417969 225.707031 70.824219 C 225.789062 71.230469 225.828125 71.644531 225.828125 72.058594 C 225.824219 72.472656 225.777344 72.878906 225.691406 73.285156 C 225.609375 73.691406 225.484375 74.082031 225.324219 74.464844 C 225.164062 74.84375 224.96875 75.207031 224.738281 75.550781 C 224.507812 75.890625 224.246094 76.210938 223.953125 76.503906 C 223.660156 76.792969 223.34375 77.054688 223 77.285156 C 222.65625 77.519531 222.296875 77.714844 221.914062 77.875 C 221.535156 78.035156 221.140625 78.15625 220.734375 78.242188 C 220.332031 78.328125 219.921875 78.371094 219.507812 78.378906 Z M 219.507812 78.378906 " clip-rule="nonzero"/></clipPath><clipPath id="aa5acedf6f"><path d="M 48.886719 208 L 251.386719 208 L 251.386719 247 L 48.886719 247 Z M 48.886719 208 " clip-rule="nonzero"/></clipPath><clipPath id="d66c92b0bd"><path d="M 246.894531 208.976562 L 53.101562 208.976562 C 52.824219 208.976562 52.550781 209.003906 52.277344 209.058594 C 52.007812 209.113281 51.742188 209.191406 51.488281 209.296875 C 51.230469 209.402344 50.988281 209.53125 50.757812 209.6875 C 50.527344 209.839844 50.316406 210.015625 50.121094 210.210938 C 49.925781 210.40625 49.75 210.617188 49.597656 210.847656 C 49.441406 211.078125 49.3125 211.320312 49.207031 211.578125 C 49.101562 211.832031 49.023438 212.097656 48.96875 212.367188 C 48.914062 212.640625 48.886719 212.914062 48.886719 213.191406 L 48.886719 225.828125 C 48.886719 226.519531 48.921875 227.207031 48.988281 227.894531 C 49.054688 228.578125 49.15625 229.261719 49.292969 229.9375 C 49.425781 230.613281 49.59375 231.28125 49.792969 231.941406 C 49.996094 232.601562 50.226562 233.253906 50.492188 233.890625 C 50.753906 234.527344 51.050781 235.148438 51.375 235.757812 C 51.699219 236.367188 52.054688 236.957031 52.4375 237.53125 C 52.820312 238.105469 53.230469 238.660156 53.667969 239.191406 C 54.105469 239.726562 54.570312 240.234375 55.054688 240.722656 C 55.542969 241.210938 56.054688 241.671875 56.589844 242.113281 C 57.121094 242.550781 57.675781 242.960938 58.25 243.34375 C 58.820312 243.726562 59.414062 244.082031 60.023438 244.40625 C 60.628906 244.730469 61.253906 245.023438 61.890625 245.289062 C 62.527344 245.554688 63.175781 245.785156 63.835938 245.984375 C 64.496094 246.1875 65.164062 246.351562 65.84375 246.488281 C 66.519531 246.621094 67.199219 246.722656 67.886719 246.792969 C 68.574219 246.859375 69.261719 246.894531 69.953125 246.894531 L 230.042969 246.894531 C 230.730469 246.894531 231.417969 246.859375 232.105469 246.792969 C 232.792969 246.722656 233.472656 246.621094 234.152344 246.488281 C 234.828125 246.351562 235.496094 246.1875 236.15625 245.984375 C 236.816406 245.785156 237.464844 245.554688 238.101562 245.289062 C 238.738281 245.023438 239.363281 244.730469 239.972656 244.40625 C 240.578125 244.082031 241.171875 243.726562 241.742188 243.34375 C 242.316406 242.960938 242.871094 242.550781 243.40625 242.113281 C 243.9375 241.671875 244.449219 241.210938 244.9375 240.722656 C 245.425781 240.234375 245.886719 239.726562 246.324219 239.191406 C 246.761719 238.65625 247.171875 238.105469 247.554688 237.53125 C 247.9375 236.957031 248.292969 236.367188 248.617188 235.757812 C 248.945312 235.148438 249.238281 234.527344 249.503906 233.890625 C 249.765625 233.253906 250 232.601562 250.199219 231.941406 C 250.398438 231.28125 250.566406 230.613281 250.699219 229.9375 C 250.835938 229.261719 250.9375 228.578125 251.003906 227.894531 C 251.070312 227.207031 251.105469 226.519531 251.105469 225.828125 L 251.105469 213.191406 C 251.105469 212.914062 251.078125 212.640625 251.023438 212.367188 C 250.972656 212.097656 250.890625 211.832031 250.785156 211.578125 C 250.679688 211.320312 250.550781 211.078125 250.394531 210.847656 C 250.242188 210.617188 250.066406 210.40625 249.871094 210.210938 C 249.675781 210.015625 249.464844 209.839844 249.234375 209.6875 C 249.003906 209.53125 248.761719 209.402344 248.503906 209.296875 C 248.25 209.191406 247.984375 209.113281 247.714844 209.058594 C 247.445312 209.003906 247.167969 208.976562 246.894531 208.976562 Z M 80.484375 234.253906 C 80.070312 234.253906 79.65625 234.214844 79.25 234.132812 C 78.84375 234.050781 78.449219 233.933594 78.066406 233.773438 C 77.683594 233.613281 77.316406 233.417969 76.972656 233.1875 C 76.628906 232.957031 76.308594 232.695312 76.015625 232.402344 C 75.722656 232.109375 75.460938 231.789062 75.230469 231.445312 C 75 231.101562 74.804688 230.738281 74.644531 230.351562 C 74.488281 229.96875 74.367188 229.574219 74.285156 229.167969 C 74.203125 228.761719 74.164062 228.351562 74.164062 227.933594 C 74.164062 227.519531 74.203125 227.109375 74.285156 226.703125 C 74.367188 226.296875 74.488281 225.898438 74.644531 225.515625 C 74.804688 225.132812 75 224.769531 75.230469 224.425781 C 75.460938 224.078125 75.722656 223.757812 76.015625 223.464844 C 76.308594 223.171875 76.628906 222.910156 76.972656 222.679688 C 77.316406 222.449219 77.683594 222.253906 78.066406 222.097656 C 78.449219 221.9375 78.84375 221.816406 79.25 221.738281 C 79.65625 221.65625 80.070312 221.617188 80.484375 221.617188 C 80.898438 221.617188 81.308594 221.65625 81.714844 221.738281 C 82.125 221.816406 82.519531 221.9375 82.902344 222.097656 C 83.285156 222.253906 83.648438 222.449219 83.996094 222.679688 C 84.339844 222.910156 84.660156 223.171875 84.953125 223.464844 C 85.246094 223.757812 85.507812 224.078125 85.738281 224.425781 C 85.96875 224.769531 86.164062 225.132812 86.320312 225.515625 C 86.480469 225.898438 86.601562 226.296875 86.679688 226.703125 C 86.761719 227.109375 86.804688 227.519531 86.804688 227.933594 C 86.796875 228.347656 86.753906 228.757812 86.667969 229.160156 C 86.582031 229.566406 86.460938 229.960938 86.300781 230.339844 C 86.140625 230.722656 85.945312 231.082031 85.710938 231.425781 C 85.480469 231.769531 85.21875 232.085938 84.929688 232.378906 C 84.636719 232.671875 84.316406 232.933594 83.976562 233.164062 C 83.632812 233.394531 83.269531 233.589844 82.890625 233.75 C 82.507812 233.910156 82.117188 234.035156 81.710938 234.117188 C 81.304688 234.203125 80.898438 234.25 80.484375 234.253906 Z M 126.824219 234.253906 C 126.410156 234.253906 126 234.214844 125.59375 234.132812 C 125.1875 234.050781 124.789062 233.933594 124.40625 233.773438 C 124.023438 233.613281 123.660156 233.417969 123.316406 233.1875 C 122.96875 232.957031 122.648438 232.695312 122.355469 232.402344 C 122.0625 232.109375 121.800781 231.789062 121.570312 231.445312 C 121.339844 231.101562 121.144531 230.738281 120.988281 230.351562 C 120.828125 229.96875 120.707031 229.574219 120.628906 229.167969 C 120.546875 228.761719 120.507812 228.351562 120.507812 227.933594 C 120.507812 227.519531 120.546875 227.109375 120.628906 226.703125 C 120.707031 226.296875 120.828125 225.898438 120.988281 225.515625 C 121.144531 225.132812 121.339844 224.769531 121.570312 224.425781 C 121.800781 224.078125 122.0625 223.757812 122.355469 223.464844 C 122.648438 223.171875 122.96875 222.910156 123.316406 222.679688 C 123.660156 222.449219 124.023438 222.253906 124.40625 222.097656 C 124.789062 221.9375 125.1875 221.816406 125.59375 221.738281 C 126 221.65625 126.410156 221.617188 126.824219 221.617188 C 127.242188 221.617188 127.652344 221.65625 128.058594 221.738281 C 128.464844 221.816406 128.859375 221.9375 129.242188 222.097656 C 129.628906 222.253906 129.992188 222.449219 130.335938 222.679688 C 130.679688 222.910156 131 223.171875 131.292969 223.464844 C 131.585938 223.757812 131.847656 224.078125 132.078125 224.425781 C 132.308594 224.769531 132.503906 225.132812 132.664062 225.515625 C 132.824219 225.898438 132.941406 226.296875 133.023438 226.703125 C 133.105469 227.109375 133.144531 227.519531 133.144531 227.933594 C 133.140625 228.347656 133.09375 228.757812 133.007812 229.160156 C 132.925781 229.566406 132.800781 229.960938 132.640625 230.339844 C 132.480469 230.722656 132.285156 231.082031 132.054688 231.425781 C 131.824219 231.769531 131.5625 232.085938 131.269531 232.378906 C 130.976562 232.671875 130.660156 232.933594 130.316406 233.164062 C 129.972656 233.394531 129.613281 233.589844 129.230469 233.75 C 128.851562 233.910156 128.457031 234.035156 128.050781 234.117188 C 127.648438 234.203125 127.238281 234.25 126.824219 234.253906 Z M 173.167969 234.253906 C 172.753906 234.253906 172.339844 234.214844 171.933594 234.132812 C 171.527344 234.050781 171.132812 233.933594 170.75 233.773438 C 170.367188 233.613281 170 233.417969 169.65625 233.1875 C 169.3125 232.957031 168.992188 232.695312 168.699219 232.402344 C 168.40625 232.109375 168.144531 231.789062 167.914062 231.445312 C 167.683594 231.101562 167.488281 230.738281 167.328125 230.351562 C 167.171875 229.96875 167.050781 229.574219 166.96875 229.167969 C 166.886719 228.761719 166.847656 228.351562 166.847656 227.933594 C 166.847656 227.519531 166.886719 227.109375 166.96875 226.703125 C 167.050781 226.296875 167.171875 225.898438 167.328125 225.515625 C 167.488281 225.132812 167.683594 224.769531 167.914062 224.425781 C 168.144531 224.078125 168.40625 223.757812 168.699219 223.464844 C 168.992188 223.171875 169.3125 222.910156 169.65625 222.679688 C 170 222.449219 170.367188 222.253906 170.75 222.097656 C 171.132812 221.9375 171.527344 221.816406 171.933594 221.738281 C 172.339844 221.65625 172.753906 221.617188 173.167969 221.617188 C 173.582031 221.617188 173.992188 221.65625 174.398438 221.738281 C 174.808594 221.816406 175.203125 221.9375 175.585938 222.097656 C 175.96875 222.253906 176.332031 222.449219 176.679688 222.679688 C 177.023438 222.910156 177.34375 223.171875 177.636719 223.464844 C 177.929688 223.757812 178.191406 224.078125 178.421875 224.425781 C 178.652344 224.769531 178.847656 225.132812 179.003906 225.515625 C 179.164062 225.898438 179.285156 226.296875 179.363281 226.703125 C 179.445312 227.109375 179.488281 227.519531 179.488281 227.933594 C 179.480469 228.347656 179.4375 228.757812 179.351562 229.160156 C 179.265625 229.566406 179.144531 229.960938 178.984375 230.339844 C 178.824219 230.722656 178.628906 231.082031 178.394531 231.425781 C 178.164062 231.769531 177.902344 232.085938 177.613281 232.378906 C 177.320312 232.671875 177 232.933594 176.660156 233.164062 C 176.316406 233.394531 175.953125 233.589844 175.574219 233.75 C 175.191406 233.910156 174.800781 234.035156 174.394531 234.117188 C 173.988281 234.203125 173.582031 234.25 173.167969 234.253906 Z M 219.507812 234.253906 C 219.09375 234.253906 218.683594 234.214844 218.277344 234.132812 C 217.871094 234.050781 217.472656 233.933594 217.089844 233.773438 C 216.707031 233.613281 216.34375 233.417969 216 233.1875 C 215.652344 232.957031 215.332031 232.695312 215.039062 232.402344 C 214.746094 232.109375 214.484375 231.789062 214.253906 231.445312 C 214.023438 231.101562 213.828125 230.738281 213.671875 230.351562 C 213.511719 229.96875 213.390625 229.574219 213.3125 229.167969 C 213.230469 228.761719 213.191406 228.351562 213.191406 227.933594 C 213.191406 227.519531 213.230469 227.109375 213.3125 226.703125 C 213.390625 226.296875 213.511719 225.898438 213.671875 225.515625 C 213.828125 225.132812 214.023438 224.769531 214.253906 224.425781 C 214.484375 224.078125 214.746094 223.757812 215.039062 223.464844 C 215.332031 223.171875 215.652344 222.910156 216 222.679688 C 216.34375 222.449219 216.707031 222.253906 217.089844 222.097656 C 217.472656 221.9375 217.871094 221.816406 218.277344 221.738281 C 218.683594 221.65625 219.09375 221.617188 219.507812 221.617188 C 219.925781 221.617188 220.335938 221.65625 220.742188 221.738281 C 221.148438 221.816406 221.542969 221.9375 221.925781 222.097656 C 222.3125 222.253906 222.675781 222.449219 223.019531 222.679688 C 223.363281 222.910156 223.683594 223.171875 223.976562 223.464844 C 224.269531 223.757812 224.53125 224.078125 224.761719 224.425781 C 224.992188 224.769531 225.1875 225.132812 225.347656 225.515625 C 225.507812 225.898438 225.625 226.296875 225.707031 226.703125 C 225.789062 227.109375 225.828125 227.519531 225.828125 227.933594 C 225.824219 228.347656 225.777344 228.757812 225.691406 229.160156 C 225.609375 229.566406 225.484375 229.960938 225.324219 230.339844 C 225.164062 230.722656 224.96875 231.082031 224.738281 231.425781 C 224.507812 231.769531 224.246094 232.085938 223.953125 232.378906 C 223.660156 232.671875 223.34375 232.933594 223 233.164062 C 222.65625 233.394531 222.296875 233.589844 221.914062 233.75 C 221.535156 233.910156 221.140625 234.035156 220.734375 234.117188 C 220.332031 234.203125 219.921875 234.25 219.507812 234.253906 Z M 219.507812 234.253906 " clip-rule="nonzero"/></clipPath></defs><g clip-path="url(#1905f2cf7e)"><rect x="-30" fill="url(#bcd2bb380e)" width="360" y="-29.999999" height="359.999986"/></g><g clip-path="url(#6047d33df9)"><g clip-path="url(#abb71c3536)"><path fill="#ffffff" d="M 61.929688 63.863281 L 238.09375 63.863281 L 238.09375 80.679688 L 61.929688 80.679688 Z M 61.929688 63.863281 " fill-opacity="1" fill-rule="nonzero"/></g></g><g clip-path="url(#e7afbc1ec2)"><g clip-path="url(#2eddb60cea)"><path fill="#ffffff" d="M 61.929688 219.824219 L 238.058594 219.824219 L 238.058594 236.96875 L 61.929688 236.96875 Z M 61.929688 219.824219 " fill-opacity="1" fill-rule="nonzero"/></g></g><g clip-path="url(#095f492661)"><g clip-path="url(#364139bc3b)"><path fill="#0088cc" d="M 48.886719 99.441406 L 48.886719 200.550781 L 251.105469 200.550781 L 251.105469 99.441406 Z M 48.886719 99.441406 " fill-opacity="1" fill-rule="nonzero"/></g></g><g clip-path="url(#0392340dbb)"><g clip-path="url(#7b176a7cff)"><path fill="#0088cc" d="M 48.886719 53.101562 L 48.886719 91.015625 L 251.105469 91.015625 L 251.105469 53.101562 Z M 48.886719 53.101562 " fill-opacity="1" fill-rule="nonzero"/></g></g><g clip-path="url(#aa5acedf6f)"><g clip-path="url(#d66c92b0bd)"><path fill="#0088cc" d="M 48.886719 208.976562 L 48.886719 246.894531 L 251.105469 246.894531 L 251.105469 208.976562 Z M 48.886719 208.976562 " fill-opacity="1" fill-rule="nonzero"/></g></g></svg>